<mxfile host="65bd71144e">
    <diagram id="zyUnPQHqCSBXho8Q2ZOF" name="Page-1">
        <mxGraphModel dx="1707" dy="677" grid="1" gridSize="10" guides="1" tooltips="1" connect="1" arrows="1" fold="1" page="1" pageScale="1" pageWidth="850" pageHeight="1100" math="0" shadow="0">
            <root>
                <mxCell id="0"/>
                <mxCell id="1" parent="0"/>
                <mxCell id="32" value="" style="edgeStyle=none;html=1;fontColor=#FFFFFF;entryX=0;entryY=0.5;entryDx=0;entryDy=0;" parent="1" source="28" target="33" edge="1">
                    <mxGeometry relative="1" as="geometry">
                        <mxPoint x="665" y="280" as="sourcePoint"/>
                        <mxPoint x="705" y="310" as="targetPoint"/>
                    </mxGeometry>
                </mxCell>
                <mxCell id="28" value="Calc Models" style="shape=umlFrame;whiteSpace=wrap;html=1;width=120;height=30;boundedLbl=1;verticalAlign=middle;align=left;spacingLeft=5;fontColor=#FFFFFF;" parent="1" vertex="1">
                    <mxGeometry x="400" y="120" width="260" height="410" as="geometry"/>
                </mxCell>
                <mxCell id="33" value="dijkstra" style="html=1;align=center;verticalAlign=top;rounded=1;absoluteArcSize=1;arcSize=10;dashed=0;fontColor=#FFFFFF;" parent="1" vertex="1">
                    <mxGeometry x="690" y="305" width="140" height="40" as="geometry"/>
                </mxCell>
                <mxCell id="118" style="edgeStyle=orthogonalEdgeStyle;curved=1;html=1;fontColor=#FFFFFF;elbow=vertical;" parent="1" source="36" target="28" edge="1">
                    <mxGeometry relative="1" as="geometry"/>
                </mxCell>
                <mxCell id="36" value="Base Model" style="shape=umlFrame;whiteSpace=wrap;html=1;width=120;height=30;boundedLbl=1;verticalAlign=middle;align=left;spacingLeft=5;fontColor=#FFFFFF;" parent="1" vertex="1">
                    <mxGeometry x="-360" y="120" width="720" height="410" as="geometry"/>
                </mxCell>
                <mxCell id="37" value="Station" style="swimlane;fontStyle=0;align=center;verticalAlign=top;childLayout=stackLayout;horizontal=1;startSize=30;horizontalStack=0;resizeParent=1;resizeParentMax=0;resizeLast=0;collapsible=0;marginBottom=0;html=1;fontColor=#FFFFFF;" parent="1" vertex="1">
                    <mxGeometry x="130" y="180" width="200" height="198" as="geometry"/>
                </mxCell>
                <mxCell id="38" value="attributes" style="text;html=1;strokeColor=none;fillColor=none;align=center;verticalAlign=middle;spacingLeft=4;spacingRight=4;overflow=hidden;rotatable=0;points=[[0,0.5],[1,0.5]];portConstraint=eastwest;fontColor=#FFFFFF;" parent="37" vertex="1">
                    <mxGeometry y="30" width="200" height="20" as="geometry"/>
                </mxCell>
                <mxCell id="63" value="int id" style="text;html=1;strokeColor=none;fillColor=none;align=left;verticalAlign=middle;spacingLeft=4;spacingRight=4;overflow=hidden;rotatable=0;points=[[0,0.5],[1,0.5]];portConstraint=eastwest;fontColor=#FFFFFF;" parent="37" vertex="1">
                    <mxGeometry y="50" width="200" height="20" as="geometry"/>
                </mxCell>
                <mxCell id="39" value="vec&amp;lt;Line*&amp;gt; lines" style="text;html=1;strokeColor=none;fillColor=none;align=left;verticalAlign=middle;spacingLeft=4;spacingRight=4;overflow=hidden;rotatable=0;points=[[0,0.5],[1,0.5]];portConstraint=eastwest;fontColor=#FFFFFF;" parent="37" vertex="1">
                    <mxGeometry y="70" width="200" height="20" as="geometry"/>
                </mxCell>
                <mxCell id="40" value="&lt;font&gt;vec&amp;lt;Train*&amp;gt; trains&lt;/font&gt;" style="text;html=1;strokeColor=none;fillColor=none;align=left;verticalAlign=middle;spacingLeft=4;spacingRight=4;overflow=hidden;rotatable=0;points=[[0,0.5],[1,0.5]];portConstraint=eastwest;fontColor=#FFFFFF;" parent="37" vertex="1">
                    <mxGeometry y="90" width="200" height="20" as="geometry"/>
                </mxCell>
                <mxCell id="41" value="vec&amp;lt;vec&amp;lt;int&amp;gt;&amp;gt; transfer" style="text;html=1;strokeColor=none;fillColor=none;align=left;verticalAlign=middle;spacingLeft=4;spacingRight=4;overflow=hidden;rotatable=0;points=[[0,0.5],[1,0.5]];portConstraint=eastwest;fontColor=#FFFFFF;" parent="37" vertex="1">
                    <mxGeometry y="110" width="200" height="20" as="geometry"/>
                </mxCell>
                <mxCell id="42" value="" style="line;strokeWidth=1;fillColor=none;align=left;verticalAlign=middle;spacingTop=-1;spacingLeft=3;spacingRight=3;rotatable=0;labelPosition=right;points=[];portConstraint=eastwest;fontColor=#FFFFFF;" parent="37" vertex="1">
                    <mxGeometry y="130" width="200" height="8" as="geometry"/>
                </mxCell>
                <mxCell id="43" value="operations" style="text;html=1;strokeColor=none;fillColor=none;align=center;verticalAlign=middle;spacingLeft=4;spacingRight=4;overflow=hidden;rotatable=0;points=[[0,0.5],[1,0.5]];portConstraint=eastwest;fontColor=#FFFFFF;" parent="37" vertex="1">
                    <mxGeometry y="138" width="200" height="20" as="geometry"/>
                </mxCell>
                <mxCell id="71" value="Line* getLine(str id)" style="text;html=1;strokeColor=none;fillColor=none;align=left;verticalAlign=middle;spacingLeft=4;spacingRight=4;overflow=hidden;rotatable=0;points=[[0,0.5],[1,0.5]];portConstraint=eastwest;fontColor=#FFFFFF;" parent="37" vertex="1">
                    <mxGeometry y="158" width="200" height="20" as="geometry"/>
                </mxCell>
                <mxCell id="72" value="Train* getTrain(str id)" style="text;html=1;strokeColor=none;fillColor=none;align=left;verticalAlign=middle;spacingLeft=4;spacingRight=4;overflow=hidden;rotatable=0;points=[[0,0.5],[1,0.5]];portConstraint=eastwest;fontColor=#FFFFFF;" parent="37" vertex="1">
                    <mxGeometry y="178" width="200" height="20" as="geometry"/>
                </mxCell>
                <mxCell id="45" value="Line" style="swimlane;fontStyle=0;align=center;verticalAlign=top;childLayout=stackLayout;horizontal=1;startSize=30;horizontalStack=0;resizeParent=1;resizeParentMax=0;resizeLast=0;collapsible=0;marginBottom=0;html=1;fontColor=#FFFFFF;" parent="1" vertex="1">
                    <mxGeometry x="-330" y="180" width="200" height="218" as="geometry"/>
                </mxCell>
                <mxCell id="46" value="attributes" style="text;html=1;strokeColor=none;fillColor=none;align=center;verticalAlign=middle;spacingLeft=4;spacingRight=4;overflow=hidden;rotatable=0;points=[[0,0.5],[1,0.5]];portConstraint=eastwest;fontColor=#FFFFFF;" parent="45" vertex="1">
                    <mxGeometry y="30" width="200" height="20" as="geometry"/>
                </mxCell>
                <mxCell id="62" value="int id" style="text;html=1;strokeColor=none;fillColor=none;align=left;verticalAlign=middle;spacingLeft=4;spacingRight=4;overflow=hidden;rotatable=0;points=[[0,0.5],[1,0.5]];portConstraint=eastwest;fontColor=#FFFFFF;" parent="45" vertex="1">
                    <mxGeometry y="50" width="200" height="20" as="geometry"/>
                </mxCell>
                <mxCell id="48" value="&lt;span style=&quot;&quot;&gt;vec&amp;lt;Train*&amp;gt; trains&lt;/span&gt;" style="text;html=1;strokeColor=none;fillColor=none;align=left;verticalAlign=middle;spacingLeft=4;spacingRight=4;overflow=hidden;rotatable=0;points=[[0,0.5],[1,0.5]];portConstraint=eastwest;fontColor=#FFFFFF;" parent="45" vertex="1">
                    <mxGeometry y="70" width="200" height="20" as="geometry"/>
                </mxCell>
                <mxCell id="47" value="vec&amp;lt;Station*&amp;gt; stations" style="text;html=1;strokeColor=none;fillColor=none;align=left;verticalAlign=middle;spacingLeft=4;spacingRight=4;overflow=hidden;rotatable=0;points=[[0,0.5],[1,0.5]];portConstraint=eastwest;fontColor=#FFFFFF;" parent="45" vertex="1">
                    <mxGeometry y="90" width="200" height="20" as="geometry"/>
                </mxCell>
                <mxCell id="50" value="" style="line;strokeWidth=1;fillColor=none;align=left;verticalAlign=middle;spacingTop=-1;spacingLeft=3;spacingRight=3;rotatable=0;labelPosition=right;points=[];portConstraint=eastwest;fontColor=#FFFFFF;" parent="45" vertex="1">
                    <mxGeometry y="110" width="200" height="8" as="geometry"/>
                </mxCell>
                <mxCell id="51" value="operations" style="text;html=1;strokeColor=none;fillColor=none;align=center;verticalAlign=middle;spacingLeft=4;spacingRight=4;overflow=hidden;rotatable=0;points=[[0,0.5],[1,0.5]];portConstraint=eastwest;fontColor=#FFFFFF;" parent="45" vertex="1">
                    <mxGeometry y="118" width="200" height="20" as="geometry"/>
                </mxCell>
                <mxCell id="76" value="Train* getTrain(str id)" style="text;html=1;strokeColor=none;fillColor=none;align=left;verticalAlign=middle;spacingLeft=4;spacingRight=4;overflow=hidden;rotatable=0;points=[[0,0.5],[1,0.5]];portConstraint=eastwest;fontColor=#FFFFFF;" parent="45" vertex="1">
                    <mxGeometry y="138" width="200" height="20" as="geometry"/>
                </mxCell>
                <mxCell id="75" value="Station* getStation(str id)" style="text;html=1;strokeColor=none;fillColor=none;align=left;verticalAlign=middle;spacingLeft=4;spacingRight=4;overflow=hidden;rotatable=0;points=[[0,0.5],[1,0.5]];portConstraint=eastwest;fontColor=#FFFFFF;" parent="45" vertex="1">
                    <mxGeometry y="158" width="200" height="20" as="geometry"/>
                </mxCell>
                <mxCell id="77" value="vec&amp;lt;Station*&amp;gt; getNexts(Station*)" style="text;html=1;strokeColor=none;fillColor=none;align=left;verticalAlign=middle;spacingLeft=4;spacingRight=4;overflow=hidden;rotatable=0;points=[[0,0.5],[1,0.5]];portConstraint=eastwest;fontColor=#FFFFFF;" parent="45" vertex="1">
                    <mxGeometry y="178" width="200" height="20" as="geometry"/>
                </mxCell>
                <mxCell id="91" value="chrono transfer(Line*)" style="text;html=1;strokeColor=none;fillColor=none;align=left;verticalAlign=middle;spacingLeft=4;spacingRight=4;overflow=hidden;rotatable=0;points=[[0,0.5],[1,0.5]];portConstraint=eastwest;fontColor=#FFFFFF;" parent="45" vertex="1">
                    <mxGeometry y="198" width="200" height="20" as="geometry"/>
                </mxCell>
                <mxCell id="53" value="Train" style="swimlane;fontStyle=0;align=center;verticalAlign=top;childLayout=stackLayout;horizontal=1;startSize=30;horizontalStack=0;resizeParent=1;resizeParentMax=0;resizeLast=0;collapsible=0;marginBottom=0;html=1;fontColor=#FFFFFF;" parent="1" vertex="1">
                    <mxGeometry x="-100" y="180" width="200" height="178" as="geometry"/>
                </mxCell>
                <mxCell id="54" value="attributes" style="text;html=1;strokeColor=none;fillColor=none;align=center;verticalAlign=middle;spacingLeft=4;spacingRight=4;overflow=hidden;rotatable=0;points=[[0,0.5],[1,0.5]];portConstraint=eastwest;fontColor=#FFFFFF;" parent="53" vertex="1">
                    <mxGeometry y="30" width="200" height="20" as="geometry"/>
                </mxCell>
                <mxCell id="64" value="int id" style="text;html=1;strokeColor=none;fillColor=none;align=left;verticalAlign=middle;spacingLeft=4;spacingRight=4;overflow=hidden;rotatable=0;points=[[0,0.5],[1,0.5]];portConstraint=eastwest;fontColor=#FFFFFF;" parent="53" vertex="1">
                    <mxGeometry y="50" width="200" height="20" as="geometry"/>
                </mxCell>
                <mxCell id="55" value="vec&amp;lt;Station*&amp;gt; stations" style="text;html=1;strokeColor=none;fillColor=none;align=left;verticalAlign=middle;spacingLeft=4;spacingRight=4;overflow=hidden;rotatable=0;points=[[0,0.5],[1,0.5]];portConstraint=eastwest;fontColor=#FFFFFF;" parent="53" vertex="1">
                    <mxGeometry y="70" width="200" height="20" as="geometry"/>
                </mxCell>
                <mxCell id="56" value="&lt;span style=&quot;&quot;&gt;vec&amp;lt;Line*&amp;gt; lines&lt;/span&gt;" style="text;html=1;strokeColor=none;fillColor=none;align=left;verticalAlign=middle;spacingLeft=4;spacingRight=4;overflow=hidden;rotatable=0;points=[[0,0.5],[1,0.5]];portConstraint=eastwest;fontColor=#FFFFFF;" parent="53" vertex="1">
                    <mxGeometry y="90" width="200" height="20" as="geometry"/>
                </mxCell>
                <mxCell id="58" value="" style="line;strokeWidth=1;fillColor=none;align=left;verticalAlign=middle;spacingTop=-1;spacingLeft=3;spacingRight=3;rotatable=0;labelPosition=right;points=[];portConstraint=eastwest;fontColor=#FFFFFF;" parent="53" vertex="1">
                    <mxGeometry y="110" width="200" height="8" as="geometry"/>
                </mxCell>
                <mxCell id="59" value="operations" style="text;html=1;strokeColor=none;fillColor=none;align=center;verticalAlign=middle;spacingLeft=4;spacingRight=4;overflow=hidden;rotatable=0;points=[[0,0.5],[1,0.5]];portConstraint=eastwest;fontColor=#FFFFFF;" parent="53" vertex="1">
                    <mxGeometry y="118" width="200" height="20" as="geometry"/>
                </mxCell>
                <mxCell id="73" value="Station* getStation(str id)" style="text;html=1;strokeColor=none;fillColor=none;align=left;verticalAlign=middle;spacingLeft=4;spacingRight=4;overflow=hidden;rotatable=0;points=[[0,0.5],[1,0.5]];portConstraint=eastwest;fontColor=#FFFFFF;" parent="53" vertex="1">
                    <mxGeometry y="138" width="200" height="20" as="geometry"/>
                </mxCell>
                <mxCell id="74" value="Line* getLine(str id)" style="text;html=1;strokeColor=none;fillColor=none;align=left;verticalAlign=middle;spacingLeft=4;spacingRight=4;overflow=hidden;rotatable=0;points=[[0,0.5],[1,0.5]];portConstraint=eastwest;fontColor=#FFFFFF;" parent="53" vertex="1">
                    <mxGeometry y="158" width="200" height="20" as="geometry"/>
                </mxCell>
                <mxCell id="79" value="Edge" style="swimlane;fontStyle=0;align=center;verticalAlign=top;childLayout=stackLayout;horizontal=1;startSize=30;horizontalStack=0;resizeParent=1;resizeParentMax=0;resizeLast=0;collapsible=0;marginBottom=0;html=1;fontColor=#FFFFFF;" parent="1" vertex="1">
                    <mxGeometry x="430" y="180" width="200" height="138" as="geometry"/>
                </mxCell>
                <mxCell id="80" value="attributes" style="text;html=1;strokeColor=none;fillColor=none;align=center;verticalAlign=middle;spacingLeft=4;spacingRight=4;overflow=hidden;rotatable=0;points=[[0,0.5],[1,0.5]];portConstraint=eastwest;fontColor=#FFFFFF;" parent="79" vertex="1">
                    <mxGeometry y="30" width="200" height="20" as="geometry"/>
                </mxCell>
                <mxCell id="88" value="Station* to" style="text;html=1;strokeColor=none;fillColor=none;align=left;verticalAlign=middle;spacingLeft=4;spacingRight=4;overflow=hidden;rotatable=0;points=[[0,0.5],[1,0.5]];portConstraint=eastwest;fontColor=#FFFFFF;" parent="79" vertex="1">
                    <mxGeometry y="50" width="200" height="20" as="geometry"/>
                </mxCell>
                <mxCell id="90" value="Line* line" style="text;html=1;strokeColor=none;fillColor=none;align=left;verticalAlign=middle;spacingLeft=4;spacingRight=4;overflow=hidden;rotatable=0;points=[[0,0.5],[1,0.5]];portConstraint=eastwest;fontColor=#FFFFFF;" parent="79" vertex="1">
                    <mxGeometry y="70" width="200" height="20" as="geometry"/>
                </mxCell>
                <mxCell id="84" value="" style="line;strokeWidth=1;fillColor=none;align=left;verticalAlign=middle;spacingTop=-1;spacingLeft=3;spacingRight=3;rotatable=0;labelPosition=right;points=[];portConstraint=eastwest;fontColor=#FFFFFF;" parent="79" vertex="1">
                    <mxGeometry y="90" width="200" height="8" as="geometry"/>
                </mxCell>
                <mxCell id="85" value="operations" style="text;html=1;strokeColor=none;fillColor=none;align=center;verticalAlign=middle;spacingLeft=4;spacingRight=4;overflow=hidden;rotatable=0;points=[[0,0.5],[1,0.5]];portConstraint=eastwest;fontColor=#FFFFFF;" parent="79" vertex="1">
                    <mxGeometry y="98" width="200" height="20" as="geometry"/>
                </mxCell>
                <mxCell id="86" value="chrono getTrans(chrono depart)" style="text;html=1;strokeColor=none;fillColor=none;align=left;verticalAlign=middle;spacingLeft=4;spacingRight=4;overflow=hidden;rotatable=0;points=[[0,0.5],[1,0.5]];portConstraint=eastwest;fontColor=#FFFFFF;" parent="79" vertex="1">
                    <mxGeometry y="118" width="200" height="20" as="geometry"/>
                </mxCell>
                <mxCell id="100" value="Node" style="swimlane;fontStyle=0;align=center;verticalAlign=top;childLayout=stackLayout;horizontal=1;startSize=30;horizontalStack=0;resizeParent=1;resizeParentMax=0;resizeLast=0;collapsible=0;marginBottom=0;html=1;fontColor=#FFFFFF;" parent="1" vertex="1">
                    <mxGeometry x="430" y="340" width="200" height="158" as="geometry"/>
                </mxCell>
                <mxCell id="101" value="attributes" style="text;html=1;strokeColor=none;fillColor=none;align=center;verticalAlign=middle;spacingLeft=4;spacingRight=4;overflow=hidden;rotatable=0;points=[[0,0.5],[1,0.5]];portConstraint=eastwest;fontColor=#FFFFFF;" parent="100" vertex="1">
                    <mxGeometry y="30" width="200" height="20" as="geometry"/>
                </mxCell>
                <mxCell id="107" value="int id" style="text;html=1;strokeColor=none;fillColor=none;align=left;verticalAlign=middle;spacingLeft=4;spacingRight=4;overflow=hidden;rotatable=0;points=[[0,0.5],[1,0.5]];portConstraint=eastwest;fontColor=#FFFFFF;" parent="100" vertex="1">
                    <mxGeometry y="50" width="200" height="20" as="geometry"/>
                </mxCell>
                <mxCell id="109" value="&lt;font&gt;chrono arrival&lt;/font&gt;" style="text;html=1;strokeColor=none;fillColor=none;align=left;verticalAlign=middle;spacingLeft=4;spacingRight=4;overflow=hidden;rotatable=0;points=[[0,0.5],[1,0.5]];portConstraint=eastwest;fontColor=#FFFFFF;" parent="100" vertex="1">
                    <mxGeometry y="70" width="200" height="20" as="geometry"/>
                </mxCell>
                <mxCell id="108" value="Line* prev_line" style="text;html=1;strokeColor=none;fillColor=none;align=left;verticalAlign=middle;spacingLeft=4;spacingRight=4;overflow=hidden;rotatable=0;points=[[0,0.5],[1,0.5]];portConstraint=eastwest;fontColor=#FFFFFF;" parent="100" vertex="1">
                    <mxGeometry y="90" width="200" height="20" as="geometry"/>
                </mxCell>
                <mxCell id="104" value="" style="line;strokeWidth=1;fillColor=none;align=left;verticalAlign=middle;spacingTop=-1;spacingLeft=3;spacingRight=3;rotatable=0;labelPosition=right;points=[];portConstraint=eastwest;fontColor=#FFFFFF;" parent="100" vertex="1">
                    <mxGeometry y="110" width="200" height="8" as="geometry"/>
                </mxCell>
                <mxCell id="105" value="operations" style="text;html=1;strokeColor=none;fillColor=none;align=center;verticalAlign=middle;spacingLeft=4;spacingRight=4;overflow=hidden;rotatable=0;points=[[0,0.5],[1,0.5]];portConstraint=eastwest;fontColor=#FFFFFF;" parent="100" vertex="1">
                    <mxGeometry y="118" width="200" height="20" as="geometry"/>
                </mxCell>
                <mxCell id="99" value="bool operator&amp;gt;" style="text;html=1;strokeColor=none;fillColor=none;align=left;verticalAlign=middle;spacingLeft=4;spacingRight=4;overflow=hidden;rotatable=0;points=[[0,0.5],[1,0.5]];portConstraint=eastwest;fontColor=#FFFFFF;" parent="100" vertex="1">
                    <mxGeometry y="138" width="200" height="20" as="geometry"/>
                </mxCell>
            </root>
        </mxGraphModel>
    </diagram>
</mxfile>